<?xml version="1.0" encoding="utf-8"?>
<!-- Generator: Adobe Illustrator 22.1.0, SVG Export Plug-In . SVG Version: 6.00 Build 0)  -->
<svg version="1.1" id="Слой_1" xmlns="http://www.w3.org/2000/svg" xmlns:xlink="http://www.w3.org/1999/xlink" x="0px" y="0px"
	 viewBox="0 0 24 27" style="enable-background:new 0 0 24 27;" xml:space="preserve">
<style type="text/css">
	.st0{fill:#4699B9;}
</style>
<g>
	<g transform="translate(-1539 -10550)">
		<g>
			<path id="zi2ca" class="st0" d="M1550.1,10562.4c0.4-0.4,0.4-1,0-1.3c0,0,0,0,0,0c-0.4-0.4-1-0.4-1.3,0l-4.9,4.9
				c-0.8,0.8-1.3,1.9-1.3,3.1c0,1.2,0.5,2.3,1.3,3.1c1.7,1.7,4.5,1.7,6.2,0l11.2-11.1c1.2-1.1,1.8-2.7,1.8-4.3
				c0-1.6-0.6-3.2-1.8-4.3c-2.4-2.4-6.3-2.4-8.7,0l-11.1,11.1c-1.5,1.5-2.3,3.5-2.3,5.6c0,2.1,0.8,4.1,2.3,5.6
				c1.5,1.5,3.5,2.3,5.6,2.3c2.1,0,4.1-0.8,5.6-2.3l4.9-4.9c0.4-0.4,0.4-1,0-1.3c0,0,0,0,0,0c-0.4-0.4-1-0.4-1.3,0l-4.9,4.9
				c-1.1,1.1-2.7,1.8-4.3,1.8c-1.6,0-3.1-0.6-4.3-1.8c-1.1-1.1-1.8-2.7-1.8-4.3c0-1.6,0.6-3.1,1.8-4.3l11.1-11.1
				c0.8-0.8,1.9-1.3,3-1.2c1.1,0,2.2,0.5,3,1.2c0.8,0.8,1.3,1.9,1.3,3c0,1.1-0.5,2.2-1.3,3l-11.2,11.1c-1,1-2.6,1-3.6,0
				c-0.5-0.5-0.8-1.1-0.8-1.8c0-0.7,0.3-1.3,0.8-1.8L1550.1,10562.4z"/>
		</g>
	</g>
</g>
</svg>
