<svg version="1.1" xmlns="http://www.w3.org/2000/svg" x="0px" y="0px" viewBox="0 0 20 19" style="enable-background:new 0 0 20 19;" xml:space="preserve">
    <style type="text/css">
        .st0 {
            fill: #ffffff;
        }
    </style>
    <g>
        <g transform="translate(-660 -12689)">
            <g>
                <path id="oy3ba" class="st0" d="M660.5,12699.3l8.1,8.2c0.5,0.5,1.3,0.5,1.8,0c0,0,0,0,0,0c0.5-0.5,0.5-1.3,0-1.8l-5.9-6h14.3
                    c0.7,0,1.3-0.6,1.3-1.3v0c0-0.7-0.6-1.3-1.3-1.3h-14.3l5.9-6c0.5-0.5,0.5-1.3,0-1.8c-0.5-0.5-1.3-0.5-1.8,0c0,0,0,0,0,0l-8.1,8.2
                    C660,12698,660,12698.8,660.5,12699.3L660.5,12699.3z"></path>
            </g>
        </g>
    </g>
</svg>