<?xml version="1.0" encoding="UTF-8"?>
<svg xmlns="http://www.w3.org/2000/svg" xmlns:xlink="http://www.w3.org/1999/xlink" width="20pt" height="19pt" viewBox="0 0 20 19" version="1.1">
<g id="surface1">
<path class="svg-path" d="M 19.511719 10.300781 L 11.410156 18.5 C 11.175781 18.738281 10.851562 18.875 10.515625 18.875 C 10.179688 18.875 9.855469 18.738281 9.621094 18.5 C 9.128906 18 9.128906 17.199219 9.621094 16.699219 L 15.558594 10.699219 L 1.269531 10.699219 C 0.5625 10.683594 0 10.105469 0 9.398438 C 0.00390625 9.070312 0.140625 8.757812 0.378906 8.53125 C 0.621094 8.304688 0.941406 8.183594 1.269531 8.199219 L 15.558594 8.199219 L 9.621094 2.199219 C 9.128906 1.699219 9.128906 0.898438 9.621094 0.398438 C 9.847656 0.144531 10.171875 0 10.515625 0 C 10.855469 0 11.183594 0.144531 11.410156 0.398438 L 19.511719 8.5 C 20 9 20 9.800781 19.511719 10.300781 Z M 19.511719 10.300781 "/>
</g>
</svg>
