<?xml version="1.0" encoding="UTF-8"?>
<svg xmlns="http://www.w3.org/2000/svg" xmlns:xlink="http://www.w3.org/1999/xlink" width="20pt" height="19pt" viewBox="0 0 20 19" version="1.1">
<g id="surface1">
<path class="svg-path" d="M 0.367188 10.300781 L 8.46875 18.5 C 8.703125 18.738281 9.027344 18.875 9.363281 18.875 C 9.699219 18.875 10.023438 18.738281 10.257812 18.5 C 10.753906 18 10.753906 17.199219 10.257812 16.699219 L 4.320312 10.699219 L 18.613281 10.699219 C 19.320312 10.683594 19.882812 10.105469 19.878906 9.398438 C 19.875 9.070312 19.738281 8.757812 19.5 8.53125 C 19.261719 8.304688 18.941406 8.183594 18.613281 8.199219 L 4.316406 8.199219 L 10.253906 2.199219 C 10.75 1.703125 10.75 0.898438 10.253906 0.398438 C 10.027344 0.144531 9.699219 0 9.359375 0 C 9.019531 0 8.691406 0.144531 8.464844 0.398438 L 0.363281 8.5 C -0.128906 9 -0.125 9.804688 0.367188 10.300781 Z M 0.367188 10.300781 "/>
</g>
</svg>
