<svg xmlns="http://www.w3.org/2000/svg" xmlns:xlink="http://www.w3.org/1999/xlink" width="48" height="40" viewBox="0 0 48 40"><defs><path id="vvi9a" d="M1481.25 85.494c-.814 3.11-3.175 6.507-6.656 7.28a28.294 28.294 0 0 1-.971 1.55c.981-.347 1.95-.74 2.924-1.188a.916.916 0 0 1 1.07.22c.27.3.309.734.097 1.077-1.609 2.608-4.642 5.06-8.006 5.06-.166 0-.332-.006-.498-.018a28.976 28.976 0 0 1-3.147 2.522c-2.185 1.668-3.358 2.107-4.492 2.534-.706.265-1.393.523-2.344 1.104a44.47 44.47 0 0 1 2.572 2.14.697.697 0 0 1-.47 1.22.702.702 0 0 1-.47-.178c-1.16-1.03-2.087-1.783-2.86-2.352-.772.569-1.7 1.321-2.86 2.352a.702.702 0 0 1-.469.178.697.697 0 0 1-.47-1.22c1.001-.89 1.844-1.585 2.573-2.14-.952-.581-1.639-.839-2.344-1.104-1.135-.427-2.308-.866-4.495-2.537a28.93 28.93 0 0 1-3.145-2.52 6.706 6.706 0 0 1-.497.02c-3.365 0-6.398-2.453-8.006-5.061a.896.896 0 0 1 .096-1.077c.271-.3.701-.391 1.07-.22.975.447 1.943.84 2.925 1.189-.35-.523-.675-1.04-.972-1.551-3.48-.773-5.842-4.17-6.656-7.28a.899.899 0 0 1 .41-1.004.913.913 0 0 1 1.089.102c.8.714 1.612 1.375 2.452 1.992a26.78 26.78 0 0 1-.48-1.77c-1.415-.806-2.548-2.121-3.29-3.827-.681-1.572-1.006-3.43-.914-5.234a.899.899 0 0 1 .699-.837.909.909 0 0 1 1.008.43c.543.94 1.118 1.827 1.735 2.68.004-.738.036-1.453.096-2.142l.001-.045a30.333 30.333 0 0 1 1.174-6.34.706.706 0 0 1 .875-.473c.373.11.586.499.476.868a29.292 29.292 0 0 0-.89 4.023 32.569 32.569 0 0 1 2.399-2.085.924.924 0 0 1 1.073-.046c.33.218.482.619.379.998-.845 3.084-2.257 5.714-4.09 7.633.045.59.115 1.194.208 1.815a30.08 30.08 0 0 1 1.654-2.596.922.922 0 0 1 1.008-.347.91.91 0 0 1 .655.834c.092 2.173-.125 5.345-1.645 8.286.213.538.453 1.08.718 1.634.228-1 .502-1.976.828-2.94a.917.917 0 0 1 .862-.62h.007c.387 0 .733.243.862.605 1.008 2.83 1.301 5.782.837 8.36.363.455.755.91 1.173 1.364a29.053 29.053 0 0 1-.076-3.06.917.917 0 0 1 1.651-.516c1.805 2.43 2.975 5.194 3.32 7.817 1.877 1.404 2.868 1.777 3.914 2.17.862.323 1.741.654 3.073 1.533 1.33-.88 2.21-1.21 3.073-1.532 1.046-.394 2.036-.767 3.913-2.17.345-2.624 1.516-5.389 3.32-7.818a.917.917 0 0 1 1.652.516 29.096 29.096 0 0 1-.077 3.06c.419-.454.81-.908 1.173-1.365-.464-2.577-.171-5.53.838-8.36a.915.915 0 0 1 .861-.603h.008c.39.004.737.251.861.619.326.963.6 1.94.828 2.94.266-.553.505-1.096.718-1.634-1.52-2.941-1.737-6.113-1.645-8.286a.91.91 0 0 1 .656-.834c.376-.11.78.03 1.007.347a30.046 30.046 0 0 1 1.654 2.596c.094-.62.163-1.226.208-1.815-1.833-1.919-3.245-4.55-4.09-7.633a.907.907 0 0 1 .38-.998.921.921 0 0 1 1.072.046c.836.657 1.63 1.347 2.4 2.085a29.27 29.27 0 0 0-.89-4.023.7.7 0 0 1 .475-.868.706.706 0 0 1 .875.473 30.324 30.324 0 0 1 1.174 6.34v.042c.061.689.094 1.405.098 2.145a31.281 31.281 0 0 0 1.734-2.68.909.909 0 0 1 1.009-.43.9.9 0 0 1 .699.837c.092 1.803-.233 3.662-.915 5.234-.741 1.706-1.874 3.022-3.29 3.827a26.878 26.878 0 0 1-.48 1.77 33.095 33.095 0 0 0 2.453-1.992.913.913 0 0 1 1.089-.102c.347.21.512.613.41 1.004zm-3.07-2.717c1.36-1.296 2.103-3.23 2.332-5.135a31.38 31.38 0 0 1-2.051 2.787l-.01.122a18.89 18.89 0 0 1-.05.555c-.011.111-.023.22-.036.332l-.027.23-.044.344-.03.225-.057.367c-.01.059-.017.117-.027.173zm-40.361 0c-.01-.054-.017-.11-.026-.167a30.79 30.79 0 0 1-.087-.602c-.016-.112-.031-.227-.045-.338l-.027-.235a30.438 30.438 0 0 1-.085-.876l-.01-.13a31.405 31.405 0 0 1-2.052-2.787c.23 1.905.971 3.839 2.332 5.135zm1.759 1.654l.026.113c.02.09.042.179.065.27.018.072.036.149.056.223.023.09.047.183.072.27a25.906 25.906 0 0 0 .347 1.18c.53-1.42.845-3.023.922-4.706a30.067 30.067 0 0 0-1.488 2.65zm-.712-6.254v.177c.937-1.234 1.72-2.708 2.318-4.364a31.582 31.582 0 0 0-2.24 2.172l-.009.122a23.093 23.093 0 0 0-.047.81l-.009.238-.007.3-.005.238-.001.307zm1.562 12.777l-.074-.154c-.054-.108-.108-.223-.16-.329l-.096-.209a19.61 19.61 0 0 1-.139-.304c-.032-.07-.064-.144-.095-.216l-.126-.29-.091-.218c-.04-.096-.078-.19-.116-.287l-.048-.117a33.067 33.067 0 0 1-2.769-2.002c.78 1.708 2.051 3.303 3.714 4.126zm2.163 1.065l.058.097c.046.08.092.16.14.236.039.069.078.132.119.197.048.081.098.16.148.241l.124.194c.052.084.105.163.158.247.043.063.085.126.127.193l.17.25c.03.046.062.09.093.133.095-1.51-.07-3.123-.484-4.736-.264.955-.48 1.929-.653 2.948zm2.725 5.994c-.038-.037-.074-.079-.11-.12l-.258-.278-.15-.168c-.076-.084-.152-.17-.227-.257l-.152-.176c-.071-.083-.141-.163-.21-.248-.05-.059-.1-.12-.15-.182-.067-.08-.133-.16-.199-.243-.026-.033-.053-.065-.08-.096a34.545 34.545 0 0 1-3.229-1.111c1.246 1.407 2.93 2.566 4.765 2.879zm4.032 1.802c-.373-1.488-1.019-2.999-1.898-4.43.03.993.113 1.994.252 3.022l.087.082.207.188c.058.053.116.105.175.156.071.062.143.13.216.19.06.05.12.102.18.154.074.064.15.125.227.19.06.05.12.098.181.15.08.067.16.13.241.195l.132.103zm19.2-4.43c-.878 1.431-1.524 2.942-1.896 4.43.046-.036.092-.072.138-.11.078-.062.156-.122.232-.187l.186-.153c.075-.064.15-.124.225-.188.06-.052.12-.104.179-.153.073-.062.146-.129.217-.192.058-.05.116-.102.173-.154.07-.061.14-.127.21-.19l.085-.08a28.93 28.93 0 0 0 .252-3.023zm3.724-1.578l.1-.144c.053-.08.107-.158.16-.236.045-.07.088-.135.132-.2l.154-.24.127-.198.146-.237c.04-.066.08-.131.12-.201.047-.076.094-.156.14-.235.019-.03.038-.064.057-.097a29.458 29.458 0 0 0-.653-2.948c-.414 1.613-.578 3.226-.483 4.736zm-.053 2.438c-.027.03-.055.062-.081.097-.065.082-.13.161-.197.241-.05.063-.1.125-.151.183-.068.085-.138.163-.208.247l-.155.179c-.073.085-.147.166-.22.249a11.312 11.312 0 0 1-.4.439l-.123.133c1.835-.312 3.518-1.473 4.764-2.88a34.54 34.54 0 0 1-3.23 1.112zm4.914-17.893v-.172-.31l-.005-.235a23.388 23.388 0 0 0-.008-.304 23.652 23.652 0 0 0-.056-1.042l-.01-.127a31.617 31.617 0 0 0-2.238-2.172c.598 1.656 1.38 3.13 2.317 4.362zm-1.278 8.135l.049-.153a61.229 61.229 0 0 0 .155-.517 27.255 27.255 0 0 0 .215-.78c.02-.074.039-.153.057-.226l.064-.265c.01-.038.018-.075.027-.115a30.11 30.11 0 0 0-1.49-2.65c.078 1.684.393 3.288.923 4.706zm3.43.341a32.87 32.87 0 0 1-2.769 2.002l-.046.116-.119.291-.09.214c-.04.097-.083.195-.126.293l-.095.214a24.602 24.602 0 0 1-.235.511c-.052.11-.106.225-.16.334l-.073.151c1.662-.823 2.933-2.418 3.713-4.126zm-13.925 3.433v2.83a.951.951 0 0 1-.954.948h-11.362a.951.951 0 0 1-.954-.947v-2.83c0-.523.428-.949.954-.949h3.176V79.004l-2.089 1.74a1.143 1.143 0 0 1-1.647-.185l-1.615-2.125a1.134 1.134 0 0 1 .174-1.553l1.487-1.253a.709.709 0 0 1 .992.083.697.697 0 0 1-.082.986l-1.296 1.09 1.296 1.708 3.035-2.53a.704.704 0 0 1 1.157.537l-.004 1.29v11.22c0 .387-.315.7-.704.7h-3.426v1.93h10.454v-1.93h-2.895a.702.702 0 0 1-.705-.7v-2.255c0-.388.315-.7.705-.7.388 0 .704.312.704.7v1.556h2.645c.526 0 .954.426.954.948zm-3.6-17.607V84.5a.704.704 0 0 1-1.408 0V72.916h-2.421l-1.991 1.678a.707.707 0 0 1-.993-.084.695.695 0 0 1 .082-.985l2.065-1.74c.206-.173.469-.267.74-.267h2.783c.63 0 1.144.509 1.144 1.136z"/></defs><g><g transform="translate(-1434 -69)"><use fill="#4699b9" xlink:href="#vvi9a"/></g></g></svg>