<svg xmlns="http://www.w3.org/2000/svg" xmlns:xlink="http://www.w3.org/1999/xlink" width="21" height="24" viewBox="0 0 21 24"><defs><path id="pvhfa" d="M1661.364 532.155c.444.56.636 1.184.56 1.804-.076.616-.41 1.178-.969 1.634-.243.198-.49.386-.73.563a11.6 11.6 0 0 0-.987.793c-.006.011-.017.016-.023.024-.862.732-1.884 1.024-3.04.881-.1-.01-.21-.03-.314-.046-1.703-.319-3.16-1.15-4.244-1.834a23.695 23.695 0 0 1-7.089-7.076c-1.54-2.386-2.502-4.548-3.044-6.827-.22-.931-.484-2.338-.185-3.78a3.664 3.664 0 0 1 1.372-2.182l1.913-1.504.01-.01c.56-.414 1.182-.599 1.793-.524.61.075 1.16.4 1.586.94.288.338.564.695.827 1.043.13.178.27.356.407.529l1.198 1.53c.922 1.171.755 2.527-.425 3.445-.157.122-.315.253-.473.372-.416.332-.845.674-1.301.996.222.71.561 1.428 1.09 2.287 1.096 1.739 2.292 3.128 3.658 4.242.133.11.293.215.462.329.117.077.24.16.361.246l1.775-1.375c.568-.447 1.19-.634 1.806-.562.621.076 1.173.42 1.597.98zm-1.077.825l-2.42-3.086-.008-.008c-.134-.19-.366-.416-.676-.456-.315-.033-.61.135-.802.285l-1.921 1.496c-.096.074-.388.304-.804.252a1.082 1.082 0 0 1-.48-.187c-.018-.01-.037-.03-.055-.042a6.444 6.444 0 0 0-.463-.323 6.987 6.987 0 0 1-.575-.41c-1.481-1.207-2.775-2.706-3.947-4.575l-.005-.004c-.642-1.055-1.043-1.921-1.292-2.824a.57.57 0 0 1-.01-.046c-.055-.295-.083-.725.4-1.102.006-.01.017-.013.028-.02.483-.334.933-.687 1.406-1.061.162-.122.32-.25.483-.381.596-.459.656-.95.19-1.544l-1.198-1.522c-.14-.186-.28-.365-.416-.543a22.37 22.37 0 0 0-.79-1.002c-.005-.01-.01-.013-.013-.02-.141-.178-.373-.4-.688-.439-.255-.028-.531.062-.805.262l-1.916 1.49c-.466.363-.75.82-.873 1.397-.187.906-.136 1.888.176 3.19.505 2.128 1.413 4.159 2.866 6.419 1.765 2.707 4.013 4.951 6.677 6.664.975.62 2.285 1.366 3.76 1.643.074.014.154.023.23.034.78.093 1.407-.085 1.98-.566a13.2 13.2 0 0 1 1.088-.876c.24-.182.464-.35.685-.534-.005.005-.005 0 0 0 .576-.467.64-.988.188-1.56z"/></defs><g><g transform="translate(-1641 -514)"><use fill="#4699b9" xlink:href="#pvhfa"/></g></g></svg>