<svg xmlns="http://www.w3.org/2000/svg" xmlns:xlink="http://www.w3.org/1999/xlink" width="44" height="40" viewBox="0 0 44 40"><defs><path id="vkf0a" d="M1719.6 86.974a.73.73 0 0 1 .733-.727h9.533a.73.73 0 0 1 .734.727.73.73 0 0 1-.734.727h-9.533a.73.73 0 0 1-.733-.727zm20.533 4.36a.73.73 0 0 1-.733.726h-19.067a.73.73 0 0 1-.733-.727.73.73 0 0 1 .733-.727h19.067a.73.73 0 0 1 .733.727zm0 4.357a.73.73 0 0 1-.733.725h-19.067a.73.73 0 0 1-.733-.725.73.73 0 0 1 .733-.727h19.067a.73.73 0 0 1 .733.727zM1757 75.353v15.355c0 2.377-1.951 4.308-4.349 4.308h-.785v7.263a.728.728 0 0 1-.733.728.735.735 0 0 1-.543-.24l-3.857-4.2v.08c0 2.374-1.95 4.308-4.349 4.308l-12.192.05-7.116 7.754a.74.74 0 0 1-.807.188.726.726 0 0 1-.47-.677v-7.264h-4.45c-2.399 0-4.35-1.932-4.35-4.307V83.342c0-2.374 1.951-4.306 4.35-4.306l5.917-.013v-3.72c0-2.375 1.951-4.31 4.349-4.31l25.037.05c2.398 0 4.348 1.935 4.348 4.31zm-11.734 7.938c0-1.574-1.293-2.854-2.882-2.854l-18.383.038H1724l-6.65.013c-1.59 0-2.884 1.28-2.884 2.853V98.7c0 1.573 1.293 2.855 2.882 2.855h5.185c.406 0 .733.324.733.723v6.115l6.058-6.603a.738.738 0 0 1 .54-.235l12.517-.052c1.592 0 2.885-1.281 2.885-2.856zm10.268 7.417V75.35c0-1.573-1.293-2.853-2.882-2.853h-.002l-25.036-.052c-1.588 0-2.88 1.282-2.88 2.857v3.718l17.649-.036c2.4 0 4.35 1.932 4.35 4.307v13.115l3.667 3.993v-6.11c0-.401.327-.728.733-.728h1.518c1.59 0 2.882-1.28 2.882-2.854z"/></defs><g><g transform="translate(-1713 -71)"><use fill="#4699b9" xlink:href="#vkf0a"/></g></g></svg>