<svg xmlns="http://www.w3.org/2000/svg" xmlns:xlink="http://www.w3.org/1999/xlink" width="19" height="20" viewBox="0 0 19 20"><defs><path id="xofha" d="M1634.753 700.962a.904.904 0 0 1-.506 0c-9.247-2.896-9.102-9.758-8.996-14.764.011-.537.022-1.05.022-1.54 0-.383.346-.694.773-.694 3.303 0 5.819-.858 7.915-2.701a.834.834 0 0 1 1.077 0c2.097 1.843 4.613 2.7 7.917 2.7.427 0 .772.312.772.695 0 .49.011 1 .022 1.54.106 5.005.25 11.868-8.996 14.764zm7.451-14.737c-.006-.303-.012-.597-.016-.88-3.095-.12-5.57-.966-7.688-2.631-2.118 1.665-4.593 2.51-7.687 2.63-.005.284-.01.578-.017.88-.107 5.036-.226 10.734 7.704 13.337 7.93-2.603 7.81-8.3 7.704-13.336zm-3.951 2.381a.651.651 0 0 1 0 .987l-4.275 3.863a.816.816 0 0 1-.547.202.815.815 0 0 1-.546-.202l-2.137-1.928a.652.652 0 0 1 0-.988.831.831 0 0 1 1.092 0l1.591 1.435 3.73-3.369a.837.837 0 0 1 1.092 0z"/></defs><g><g transform="translate(-1625 -681)"><use fill="#67c4dd" xlink:href="#xofha"/></g></g></svg>