<svg xmlns="http://www.w3.org/2000/svg" width="19" height="19" viewBox="0 0 19 19">
  <metadata><?xpacket begin="﻿" id="W5M0MpCehiHzreSzNTczkc9d"?>
<x:xmpmeta xmlns:x="adobe:ns:meta/" x:xmptk="Adobe XMP Core 5.6-c142 79.160924, 2017/07/13-01:06:39        ">
   <rdf:RDF xmlns:rdf="http://www.w3.org/1999/02/22-rdf-syntax-ns#">
      <rdf:Description rdf:about=""/>
   </rdf:RDF>
</x:xmpmeta>
                                                                                                    
                                                                                                    
                                                                                                    
                                                                                                    
                                                                                                    
                                                                                                    
                                                                                                    
                                                                                                    
                                                                                                    
                                                                                                    
                                                                                                    
                                                                                                    
                                                                                                    
                                                                                                    
                                                                                                    
                                                                                                    
                                                                                                    
                                                                                                    
                                                                                                    
                                                                                                    
                           
<?xpacket end="w"?></metadata>
<defs>
    <style>
      .cls-1 {
        fill: #ff8771;
        fill-rule: evenodd;
      }
    </style>
  </defs>
  <path class="cls-1" d="M729.5,1817a9.5,9.5,0,1,0,9.5,9.5A9.51,9.51,0,0,0,729.5,1817Zm0,17.27a7.77,7.77,0,1,1,7.773-7.77A7.777,7.777,0,0,1,729.5,1834.27Zm0-6.92h0a4.963,4.963,0,0,0-3.542,1.47,0.863,0.863,0,1,0,1.221,1.22,3.286,3.286,0,0,1,4.642,0,0.863,0.863,0,0,0,1.221-1.22A4.963,4.963,0,0,0,729.5,1827.35Zm-2.871-1.88a1.145,1.145,0,0,0,.338-0.81,1.187,1.187,0,0,0-.338-0.82,1.169,1.169,0,0,0-1.628,0,1.19,1.19,0,0,0-.337.82A1.149,1.149,0,0,0,726.629,1825.47Zm6.556-1.96a1.169,1.169,0,0,0-.814.33,1.187,1.187,0,0,0-.338.82,1.152,1.152,0,0,0,2.3,0,1.186,1.186,0,0,0-.337-0.82A1.17,1.17,0,0,0,733.185,1823.51Z" transform="translate(-720 -1817)"/>
</svg>
