<svg xmlns="http://www.w3.org/2000/svg" xmlns:xlink="http://www.w3.org/1999/xlink" width="19" height="23" viewBox="0 0 19 23"><defs><path id="ftnya" d="M1648.165 448.939c-1.779-2.07-1.483-5.613-1.45-5.95.115-2.557 1.298-3.771 2.268-4.339.966-.566 1.974-.654 2.487-.654h.079c.933.023 1.77.25 2.486.675.962.567 2.126 1.78 2.242 4.317.032.338.328 3.88-1.452 5.95-.808.937-1.904 1.426-3.258 1.455h-.148c-1.354-.029-2.45-.518-3.254-1.454zm.93-.855c.577.674 1.358 1.013 2.375 1.021h.046c1.022-.008 1.798-.347 2.38-1.021 1.47-1.704 1.147-4.943 1.142-4.975-.005-.01-.005-.027-.005-.04-.143-3.231-2.264-3.753-3.512-3.78h-.056c-1.007 0-3.36.367-3.512 3.78 0 .01-.005.023-.005.04-.004.025-.319 3.278 1.147 4.975zm11.674 10.337a.637.637 0 0 1-.24.3c-.14.09-3.462 2.278-9.022 2.278-5.56 0-8.883-2.182-9.022-2.277a.61.61 0 0 1-.24-.301c-.245-.637-.24-1.91-.236-2.155v-.015c.005-.038.005-.077.005-.12.028-.941.088-3.144 2.094-3.855.013-.003.027-.009.046-.013 2.093-.55 3.817-1.785 3.836-1.799a.605.605 0 0 1 .869.159.646.646 0 0 1-.153.889c-.078.054-1.918 1.379-4.22 1.988-1.076.398-1.197 1.583-1.229 2.667 0 .046-.004.084-.004.12-.01.426.023 1.093.097 1.472.753.438 3.706 1.956 8.152 1.956 4.465 0 7.4-1.511 8.149-1.95.073-.38.101-1.044.097-1.47-.005-.04-.005-.08-.005-.121-.032-1.087-.153-2.27-1.23-2.671-2.301-.608-4.14-1.928-4.22-1.986a.65.65 0 0 1-.152-.892.612.612 0 0 1 .87-.157c.018.014 1.75 1.25 3.835 1.8.014.005.033.008.046.013 2.006.706 2.066 2.909 2.094 3.854 0 .043.005.08.005.12v.016c.004.246.009 1.516-.222 2.15z"/></defs><g><g transform="translate(-1642 -438)"><use fill="#4699b9" xlink:href="#ftnya"/></g></g></svg>